<mxfile host="app.diagrams.net" modified="2023-10-26T16:10:16.468Z" agent="Mozilla/5.0 (Windows NT 10.0; Win64; x64) AppleWebKit/537.36 (KHTML, like Gecko) Chrome/118.0.0.0 Safari/537.36" etag="BbLlIjwHsewbKEzfyo59" version="22.0.8" type="github">
  <diagram name="Página-1" id="GSmeaIb20q8Nv7xJSr0J">
    <mxGraphModel dx="1434" dy="758" grid="1" gridSize="10" guides="1" tooltips="1" connect="1" arrows="1" fold="1" page="1" pageScale="1" pageWidth="2900" pageHeight="1050" math="0" shadow="0">
      <root>
        <mxCell id="0" />
        <mxCell id="1" parent="0" />
        <mxCell id="zymt9DxS3ZADFHl2k7Yk-1" value="Trazabilidad de la cuenta medica" style="swimlane;childLayout=stackLayout;resizeParent=1;resizeParentMax=0;horizontal=1;startSize=20;horizontalStack=0;html=1;" parent="1" vertex="1">
          <mxGeometry x="10" y="10" width="2880" height="1000" as="geometry" />
        </mxCell>
        <mxCell id="zymt9DxS3ZADFHl2k7Yk-2" value="Revisor de facturas" style="swimlane;startSize=20;horizontal=0;html=1;fillColor=#f8cecc;strokeColor=#b85450;" parent="zymt9DxS3ZADFHl2k7Yk-1" vertex="1">
          <mxGeometry y="20" width="2880" height="500" as="geometry" />
        </mxCell>
        <mxCell id="zymt9DxS3ZADFHl2k7Yk-3" value="" style="edgeStyle=orthogonalEdgeStyle;rounded=0;orthogonalLoop=1;jettySize=auto;html=1;" parent="zymt9DxS3ZADFHl2k7Yk-2" source="zymt9DxS3ZADFHl2k7Yk-4" target="zymt9DxS3ZADFHl2k7Yk-6" edge="1">
          <mxGeometry relative="1" as="geometry">
            <mxPoint x="420" y="100" as="sourcePoint" />
            <mxPoint x="290" y="100" as="targetPoint" />
          </mxGeometry>
        </mxCell>
        <mxCell id="zymt9DxS3ZADFHl2k7Yk-4" value="Recepcionar archivos RIPS, soportes y facturas" style="points=[[0.25,0,0],[0.5,0,0],[0.75,0,0],[1,0.25,0],[1,0.5,0],[1,0.75,0],[0.75,1,0],[0.5,1,0],[0.25,1,0],[0,0.75,0],[0,0.5,0],[0,0.25,0]];shape=mxgraph.bpmn.task;whiteSpace=wrap;rectStyle=rounded;size=10;html=1;container=1;expand=0;collapsible=0;taskMarker=manual;fillColor=#fff2cc;strokeColor=#d6b656;" parent="zymt9DxS3ZADFHl2k7Yk-2" vertex="1">
          <mxGeometry x="130" y="60" width="120" height="80" as="geometry" />
        </mxCell>
        <mxCell id="zymt9DxS3ZADFHl2k7Yk-5" style="edgeStyle=orthogonalEdgeStyle;rounded=0;orthogonalLoop=1;jettySize=auto;html=1;dashed=1;" parent="zymt9DxS3ZADFHl2k7Yk-2" source="zymt9DxS3ZADFHl2k7Yk-6" target="zymt9DxS3ZADFHl2k7Yk-51" edge="1">
          <mxGeometry relative="1" as="geometry" />
        </mxCell>
        <mxCell id="zymt9DxS3ZADFHl2k7Yk-6" value="&lt;font style=&quot;vertical-align: inherit;&quot;&gt;&lt;font style=&quot;vertical-align: inherit;&quot;&gt;Validar estructura y reglas de negocio de RIPS&lt;/font&gt;&lt;/font&gt;" style="points=[[0.25,0,0],[0.5,0,0],[0.75,0,0],[1,0.25,0],[1,0.5,0],[1,0.75,0],[0.75,1,0],[0.5,1,0],[0.25,1,0],[0,0.75,0],[0,0.5,0],[0,0.25,0]];shape=mxgraph.bpmn.task;whiteSpace=wrap;rectStyle=rounded;size=10;html=1;container=1;expand=0;collapsible=0;taskMarker=service;fillColor=#fff2cc;strokeColor=#d6b656;" parent="zymt9DxS3ZADFHl2k7Yk-2" vertex="1">
          <mxGeometry x="290" y="60" width="120" height="80" as="geometry" />
        </mxCell>
        <mxCell id="zymt9DxS3ZADFHl2k7Yk-7" value="No" style="edgeStyle=orthogonalEdgeStyle;rounded=0;orthogonalLoop=1;jettySize=auto;html=1;" parent="zymt9DxS3ZADFHl2k7Yk-2" source="zymt9DxS3ZADFHl2k7Yk-9" target="zymt9DxS3ZADFHl2k7Yk-14" edge="1">
          <mxGeometry x="-0.0667" relative="1" as="geometry">
            <mxPoint as="offset" />
          </mxGeometry>
        </mxCell>
        <mxCell id="zymt9DxS3ZADFHl2k7Yk-8" value="Si" style="edgeStyle=orthogonalEdgeStyle;rounded=0;orthogonalLoop=1;jettySize=auto;html=1;entryX=0;entryY=0.5;entryDx=0;entryDy=0;entryPerimeter=0;" parent="zymt9DxS3ZADFHl2k7Yk-2" source="zymt9DxS3ZADFHl2k7Yk-9" target="1CygiPX22rwdBVWNIMUi-1" edge="1">
          <mxGeometry relative="1" as="geometry">
            <mxPoint x="945" y="320" as="targetPoint" />
            <Array as="points">
              <mxPoint x="465" y="320" />
            </Array>
          </mxGeometry>
        </mxCell>
        <mxCell id="zymt9DxS3ZADFHl2k7Yk-9" value="¿Cumple con las&lt;br&gt;validaciones?" style="points=[[0.25,0.25,0],[0.5,0,0],[0.75,0.25,0],[1,0.5,0],[0.75,0.75,0],[0.5,1,0],[0.25,0.75,0],[0,0.5,0]];shape=mxgraph.bpmn.gateway2;html=1;verticalLabelPosition=top;labelBackgroundColor=#ffffff;verticalAlign=bottom;align=center;perimeter=rhombusPerimeter;outlineConnect=0;outline=none;symbol=none;fillColor=#d5e8d4;strokeColor=#82b366;horizontal=1;labelPosition=center;" parent="zymt9DxS3ZADFHl2k7Yk-2" vertex="1">
          <mxGeometry x="440" y="75" width="50" height="50" as="geometry" />
        </mxCell>
        <mxCell id="zymt9DxS3ZADFHl2k7Yk-10" style="edgeStyle=orthogonalEdgeStyle;rounded=0;orthogonalLoop=1;jettySize=auto;html=1;entryX=0;entryY=0.5;entryDx=0;entryDy=0;entryPerimeter=0;" parent="zymt9DxS3ZADFHl2k7Yk-2" source="zymt9DxS3ZADFHl2k7Yk-6" target="zymt9DxS3ZADFHl2k7Yk-9" edge="1">
          <mxGeometry relative="1" as="geometry" />
        </mxCell>
        <mxCell id="zymt9DxS3ZADFHl2k7Yk-11" style="edgeStyle=orthogonalEdgeStyle;rounded=0;orthogonalLoop=1;jettySize=auto;html=1;dashed=1;entryX=0;entryY=0.5;entryDx=0;entryDy=0;entryPerimeter=0;" parent="zymt9DxS3ZADFHl2k7Yk-2" source="zymt9DxS3ZADFHl2k7Yk-52" target="1CygiPX22rwdBVWNIMUi-21" edge="1">
          <mxGeometry relative="1" as="geometry">
            <mxPoint x="690" y="200" as="targetPoint" />
          </mxGeometry>
        </mxCell>
        <mxCell id="zymt9DxS3ZADFHl2k7Yk-12" style="edgeStyle=orthogonalEdgeStyle;rounded=0;orthogonalLoop=1;jettySize=auto;html=1;dashed=1;" parent="zymt9DxS3ZADFHl2k7Yk-2" source="zymt9DxS3ZADFHl2k7Yk-14" target="zymt9DxS3ZADFHl2k7Yk-52" edge="1">
          <mxGeometry relative="1" as="geometry">
            <mxPoint x="750" y="100" as="targetPoint" />
          </mxGeometry>
        </mxCell>
        <mxCell id="zymt9DxS3ZADFHl2k7Yk-14" value="Generar y notificar errores vía correo electrónico" style="points=[[0.25,0,0],[0.5,0,0],[0.75,0,0],[1,0.25,0],[1,0.5,0],[1,0.75,0],[0.75,1,0],[0.5,1,0],[0.25,1,0],[0,0.75,0],[0,0.5,0],[0,0.25,0]];shape=mxgraph.bpmn.task;whiteSpace=wrap;rectStyle=rounded;size=10;html=1;container=1;expand=0;collapsible=0;taskMarker=service;fillColor=#fff2cc;strokeColor=#d6b656;" parent="zymt9DxS3ZADFHl2k7Yk-2" vertex="1">
          <mxGeometry x="550" y="60" width="120" height="80" as="geometry" />
        </mxCell>
        <mxCell id="zymt9DxS3ZADFHl2k7Yk-28" style="edgeStyle=orthogonalEdgeStyle;rounded=0;orthogonalLoop=1;jettySize=auto;html=1;exitX=1;exitY=0.5;exitDx=0;exitDy=0;exitPerimeter=0;" parent="zymt9DxS3ZADFHl2k7Yk-2" source="zymt9DxS3ZADFHl2k7Yk-29" target="1CygiPX22rwdBVWNIMUi-16" edge="1">
          <mxGeometry relative="1" as="geometry">
            <mxPoint x="1540" y="500" as="targetPoint" />
            <mxPoint x="1050" y="305" as="sourcePoint" />
          </mxGeometry>
        </mxCell>
        <mxCell id="zymt9DxS3ZADFHl2k7Yk-29" value="Contabilizar facturas en salud FS" style="points=[[0.25,0,0],[0.5,0,0],[0.75,0,0],[1,0.25,0],[1,0.5,0],[1,0.75,0],[0.75,1,0],[0.5,1,0],[0.25,1,0],[0,0.75,0],[0,0.5,0],[0,0.25,0]];shape=mxgraph.bpmn.task;whiteSpace=wrap;rectStyle=rounded;size=10;html=1;container=1;expand=0;collapsible=0;taskMarker=abstract;fillColor=#fff2cc;strokeColor=#d6b656;" parent="zymt9DxS3ZADFHl2k7Yk-2" vertex="1">
          <mxGeometry x="1380" y="280" width="120" height="80" as="geometry" />
        </mxCell>
        <mxCell id="zymt9DxS3ZADFHl2k7Yk-30" style="edgeStyle=orthogonalEdgeStyle;rounded=0;orthogonalLoop=1;jettySize=auto;html=1;exitX=1;exitY=0.5;exitDx=0;exitDy=0;exitPerimeter=0;" parent="zymt9DxS3ZADFHl2k7Yk-2" source="zymt9DxS3ZADFHl2k7Yk-31" target="zymt9DxS3ZADFHl2k7Yk-32" edge="1">
          <mxGeometry relative="1" as="geometry">
            <mxPoint x="3380" y="160" as="sourcePoint" />
          </mxGeometry>
        </mxCell>
        <mxCell id="1CygiPX22rwdBVWNIMUi-28" style="edgeStyle=orthogonalEdgeStyle;rounded=0;orthogonalLoop=1;jettySize=auto;html=1;dashed=1;" edge="1" parent="zymt9DxS3ZADFHl2k7Yk-2" source="zymt9DxS3ZADFHl2k7Yk-31" target="zymt9DxS3ZADFHl2k7Yk-74">
          <mxGeometry relative="1" as="geometry" />
        </mxCell>
        <mxCell id="zymt9DxS3ZADFHl2k7Yk-31" value="Contabilizar y descargar glosas" style="points=[[0.25,0,0],[0.5,0,0],[0.75,0,0],[1,0.25,0],[1,0.5,0],[1,0.75,0],[0.75,1,0],[0.5,1,0],[0.25,1,0],[0,0.75,0],[0,0.5,0],[0,0.25,0]];shape=mxgraph.bpmn.task;whiteSpace=wrap;rectStyle=rounded;size=10;html=1;container=1;expand=0;collapsible=0;taskMarker=abstract;fillColor=#fff2cc;strokeColor=#d6b656;" parent="zymt9DxS3ZADFHl2k7Yk-2" vertex="1">
          <mxGeometry x="1690" y="280" width="120" height="80" as="geometry" />
        </mxCell>
        <mxCell id="zymt9DxS3ZADFHl2k7Yk-32" value="Notificar glosas generadas al prestador" style="points=[[0.25,0,0],[0.5,0,0],[0.75,0,0],[1,0.25,0],[1,0.5,0],[1,0.75,0],[0.75,1,0],[0.5,1,0],[0.25,1,0],[0,0.75,0],[0,0.5,0],[0,0.25,0]];shape=mxgraph.bpmn.task;whiteSpace=wrap;rectStyle=rounded;size=10;html=1;container=1;expand=0;collapsible=0;taskMarker=send;fillColor=#fff2cc;strokeColor=#d6b656;" parent="zymt9DxS3ZADFHl2k7Yk-2" vertex="1">
          <mxGeometry x="1850" y="280" width="120" height="80" as="geometry" />
        </mxCell>
        <mxCell id="zymt9DxS3ZADFHl2k7Yk-33" value="Si" style="edgeStyle=orthogonalEdgeStyle;rounded=0;orthogonalLoop=1;jettySize=auto;html=1;entryX=0;entryY=0.5;entryDx=0;entryDy=0;entryPerimeter=0;" parent="zymt9DxS3ZADFHl2k7Yk-2" source="zymt9DxS3ZADFHl2k7Yk-34" target="zymt9DxS3ZADFHl2k7Yk-36" edge="1">
          <mxGeometry relative="1" as="geometry" />
        </mxCell>
        <mxCell id="zymt9DxS3ZADFHl2k7Yk-34" value="¿Genera glosas?" style="points=[[0.25,0.25,0],[0.5,0,0],[0.75,0.25,0],[1,0.5,0],[0.75,0.75,0],[0.5,1,0],[0.25,0.75,0],[0,0.5,0]];shape=mxgraph.bpmn.gateway2;html=1;verticalLabelPosition=top;labelBackgroundColor=#ffffff;verticalAlign=bottom;align=center;perimeter=rhombusPerimeter;outlineConnect=0;outline=none;symbol=none;fillColor=#d5e8d4;strokeColor=#82b366;labelPosition=center;" parent="zymt9DxS3ZADFHl2k7Yk-2" vertex="1">
          <mxGeometry x="1110" y="295" width="50" height="50" as="geometry" />
        </mxCell>
        <mxCell id="zymt9DxS3ZADFHl2k7Yk-35" style="edgeStyle=orthogonalEdgeStyle;rounded=0;orthogonalLoop=1;jettySize=auto;html=1;" parent="zymt9DxS3ZADFHl2k7Yk-2" source="zymt9DxS3ZADFHl2k7Yk-36" target="zymt9DxS3ZADFHl2k7Yk-29" edge="1">
          <mxGeometry relative="1" as="geometry">
            <mxPoint x="1820" y="515" as="targetPoint" />
          </mxGeometry>
        </mxCell>
        <mxCell id="1CygiPX22rwdBVWNIMUi-25" style="edgeStyle=orthogonalEdgeStyle;rounded=0;orthogonalLoop=1;jettySize=auto;html=1;dashed=1;" edge="1" parent="zymt9DxS3ZADFHl2k7Yk-2" source="zymt9DxS3ZADFHl2k7Yk-36" target="zymt9DxS3ZADFHl2k7Yk-67">
          <mxGeometry relative="1" as="geometry" />
        </mxCell>
        <mxCell id="zymt9DxS3ZADFHl2k7Yk-36" value="&lt;font style=&quot;vertical-align: inherit;&quot;&gt;&lt;font style=&quot;vertical-align: inherit;&quot;&gt;&lt;font style=&quot;vertical-align: inherit;&quot;&gt;&lt;font style=&quot;vertical-align: inherit;&quot;&gt;&lt;font style=&quot;vertical-align: inherit;&quot;&gt;&lt;font style=&quot;vertical-align: inherit;&quot;&gt;Generar glosas&lt;/font&gt;&lt;/font&gt;&lt;/font&gt;&lt;/font&gt;&lt;/font&gt;&lt;/font&gt;" style="points=[[0.25,0,0],[0.5,0,0],[0.75,0,0],[1,0.25,0],[1,0.5,0],[1,0.75,0],[0.75,1,0],[0.5,1,0],[0.25,1,0],[0,0.75,0],[0,0.5,0],[0,0.25,0]];shape=mxgraph.bpmn.task;whiteSpace=wrap;rectStyle=rounded;size=10;html=1;container=1;expand=0;collapsible=0;taskMarker=abstract;fillColor=#fff2cc;strokeColor=#d6b656;" parent="zymt9DxS3ZADFHl2k7Yk-2" vertex="1">
          <mxGeometry x="1220" y="280" width="120" height="80" as="geometry" />
        </mxCell>
        <mxCell id="zymt9DxS3ZADFHl2k7Yk-37" value="No" style="edgeStyle=orthogonalEdgeStyle;rounded=0;orthogonalLoop=1;jettySize=auto;html=1;exitX=0.5;exitY=1;exitDx=0;exitDy=0;exitPerimeter=0;entryX=0.5;entryY=1;entryDx=0;entryDy=0;entryPerimeter=0;" parent="zymt9DxS3ZADFHl2k7Yk-2" source="zymt9DxS3ZADFHl2k7Yk-34" target="zymt9DxS3ZADFHl2k7Yk-29" edge="1">
          <mxGeometry relative="1" as="geometry">
            <mxPoint x="2530" y="920" as="sourcePoint" />
            <Array as="points">
              <mxPoint x="1135" y="390" />
              <mxPoint x="1440" y="390" />
            </Array>
          </mxGeometry>
        </mxCell>
        <mxCell id="1CygiPX22rwdBVWNIMUi-29" style="edgeStyle=orthogonalEdgeStyle;rounded=0;orthogonalLoop=1;jettySize=auto;html=1;dashed=1;" edge="1" parent="zymt9DxS3ZADFHl2k7Yk-2" source="zymt9DxS3ZADFHl2k7Yk-46" target="zymt9DxS3ZADFHl2k7Yk-78">
          <mxGeometry relative="1" as="geometry" />
        </mxCell>
        <mxCell id="zymt9DxS3ZADFHl2k7Yk-46" value="Legalizar la glosa" style="points=[[0.25,0,0],[0.5,0,0],[0.75,0,0],[1,0.25,0],[1,0.5,0],[1,0.75,0],[0.75,1,0],[0.5,1,0],[0.25,1,0],[0,0.75,0],[0,0.5,0],[0,0.25,0]];shape=mxgraph.bpmn.task;whiteSpace=wrap;rectStyle=rounded;size=10;html=1;container=1;expand=0;collapsible=0;taskMarker=abstract;fillColor=#fff2cc;strokeColor=#d6b656;" parent="zymt9DxS3ZADFHl2k7Yk-2" vertex="1">
          <mxGeometry x="2170" y="280" width="120" height="80" as="geometry" />
        </mxCell>
        <mxCell id="zymt9DxS3ZADFHl2k7Yk-47" style="edgeStyle=orthogonalEdgeStyle;rounded=0;orthogonalLoop=1;jettySize=auto;html=1;dashed=1;" parent="zymt9DxS3ZADFHl2k7Yk-2" source="zymt9DxS3ZADFHl2k7Yk-48" target="zymt9DxS3ZADFHl2k7Yk-4" edge="1">
          <mxGeometry relative="1" as="geometry" />
        </mxCell>
        <mxCell id="zymt9DxS3ZADFHl2k7Yk-48" value="Rips, soportes y &lt;br&gt;facturas" style="shape=mxgraph.bpmn.data;labelPosition=center;verticalLabelPosition=bottom;align=center;verticalAlign=top;size=9;html=1;bpmnTransferType=input;fillColor=#d5e8d4;strokeColor=#82b366;" parent="zymt9DxS3ZADFHl2k7Yk-2" vertex="1">
          <mxGeometry x="175" y="175" width="30" height="40" as="geometry" />
        </mxCell>
        <mxCell id="zymt9DxS3ZADFHl2k7Yk-49" style="edgeStyle=orthogonalEdgeStyle;rounded=0;orthogonalLoop=1;jettySize=auto;html=1;" parent="zymt9DxS3ZADFHl2k7Yk-2" source="zymt9DxS3ZADFHl2k7Yk-50" target="zymt9DxS3ZADFHl2k7Yk-4" edge="1">
          <mxGeometry relative="1" as="geometry" />
        </mxCell>
        <mxCell id="zymt9DxS3ZADFHl2k7Yk-50" value="Inicio" style="points=[[0.145,0.145,0],[0.5,0,0],[0.855,0.145,0],[1,0.5,0],[0.855,0.855,0],[0.5,1,0],[0.145,0.855,0],[0,0.5,0]];shape=mxgraph.bpmn.event;html=1;verticalLabelPosition=bottom;labelBackgroundColor=#ffffff;verticalAlign=top;align=center;perimeter=ellipsePerimeter;outlineConnect=0;aspect=fixed;outline=standard;symbol=general;fillColor=#f8cecc;strokeColor=#b85450;" parent="zymt9DxS3ZADFHl2k7Yk-2" vertex="1">
          <mxGeometry x="40" y="75" width="50" height="50" as="geometry" />
        </mxCell>
        <mxCell id="zymt9DxS3ZADFHl2k7Yk-51" value="&lt;font style=&quot;vertical-align: inherit;&quot;&gt;&lt;font style=&quot;vertical-align: inherit;&quot;&gt;Aplicativo oasis &lt;br&gt;modulo erip&lt;/font&gt;&lt;/font&gt;" style="image;aspect=fixed;html=1;points=[];align=center;fontSize=12;image=img/lib/azure2/intune/Software_Updates.svg;" parent="zymt9DxS3ZADFHl2k7Yk-2" vertex="1">
          <mxGeometry x="327.34" y="175" width="45.33" height="40" as="geometry" />
        </mxCell>
        <mxCell id="zymt9DxS3ZADFHl2k7Yk-52" value="&lt;font style=&quot;vertical-align: inherit;&quot;&gt;&lt;font style=&quot;vertical-align: inherit;&quot;&gt;Aplicativo oasis &lt;br&gt;modulo erre y erdr&lt;/font&gt;&lt;/font&gt;" style="image;aspect=fixed;html=1;points=[];align=center;fontSize=12;image=img/lib/azure2/intune/Software_Updates.svg;" parent="zymt9DxS3ZADFHl2k7Yk-2" vertex="1">
          <mxGeometry x="587.3299999999999" y="180" width="45.33" height="40" as="geometry" />
        </mxCell>
        <mxCell id="1CygiPX22rwdBVWNIMUi-24" style="edgeStyle=orthogonalEdgeStyle;rounded=0;orthogonalLoop=1;jettySize=auto;html=1;dashed=1;" edge="1" parent="zymt9DxS3ZADFHl2k7Yk-2" source="zymt9DxS3ZADFHl2k7Yk-54" target="zymt9DxS3ZADFHl2k7Yk-64">
          <mxGeometry relative="1" as="geometry" />
        </mxCell>
        <mxCell id="zymt9DxS3ZADFHl2k7Yk-54" value="&lt;font style=&quot;vertical-align: inherit;&quot;&gt;&lt;font style=&quot;vertical-align: inherit;&quot;&gt;Enviar recibido de facturas a prestador&lt;/font&gt;&lt;/font&gt;" style="points=[[0.25,0,0],[0.5,0,0],[0.75,0,0],[1,0.25,0],[1,0.5,0],[1,0.75,0],[0.75,1,0],[0.5,1,0],[0.25,1,0],[0,0.75,0],[0,0.5,0],[0,0.25,0]];shape=mxgraph.bpmn.task;whiteSpace=wrap;rectStyle=rounded;size=10;html=1;container=1;expand=0;collapsible=0;taskMarker=send;fillColor=#fff2cc;strokeColor=#d6b656;" parent="zymt9DxS3ZADFHl2k7Yk-2" vertex="1">
          <mxGeometry x="710.01" y="280" width="120" height="80" as="geometry" />
        </mxCell>
        <mxCell id="zymt9DxS3ZADFHl2k7Yk-55" value="" style="edgeStyle=orthogonalEdgeStyle;rounded=0;orthogonalLoop=1;jettySize=auto;html=1;" parent="zymt9DxS3ZADFHl2k7Yk-2" source="1CygiPX22rwdBVWNIMUi-1" target="zymt9DxS3ZADFHl2k7Yk-54" edge="1">
          <mxGeometry x="0.5789" relative="1" as="geometry">
            <mxPoint x="1055" y="695" as="targetPoint" />
            <mxPoint x="1" as="offset" />
            <mxPoint x="782.5" y="515" as="sourcePoint" />
          </mxGeometry>
        </mxCell>
        <mxCell id="zymt9DxS3ZADFHl2k7Yk-63" style="edgeStyle=orthogonalEdgeStyle;rounded=0;orthogonalLoop=1;jettySize=auto;html=1;dashed=1;" parent="zymt9DxS3ZADFHl2k7Yk-2" source="zymt9DxS3ZADFHl2k7Yk-64" target="zymt9DxS3ZADFHl2k7Yk-65" edge="1">
          <mxGeometry relative="1" as="geometry" />
        </mxCell>
        <mxCell id="zymt9DxS3ZADFHl2k7Yk-64" value="&lt;font style=&quot;vertical-align: inherit;&quot;&gt;&lt;font style=&quot;vertical-align: inherit;&quot;&gt;Aplicativo oasis &lt;br&gt;modulo efac&lt;/font&gt;&lt;/font&gt;" style="image;aspect=fixed;html=1;points=[];align=center;fontSize=12;image=img/lib/azure2/intune/Software_Updates.svg;labelPosition=center;verticalLabelPosition=bottom;verticalAlign=top;" parent="zymt9DxS3ZADFHl2k7Yk-2" vertex="1">
          <mxGeometry x="747.3499999999999" y="390" width="45.33" height="40" as="geometry" />
        </mxCell>
        <mxCell id="zymt9DxS3ZADFHl2k7Yk-65" value="Factura FS" style="shape=mxgraph.bpmn.data;labelPosition=center;verticalLabelPosition=bottom;align=center;verticalAlign=top;size=11;html=1;bpmnTransferType=output;fillColor=#d5e8d4;strokeColor=#82b366;" parent="zymt9DxS3ZADFHl2k7Yk-2" vertex="1">
          <mxGeometry x="850" y="390" width="30" height="40" as="geometry" />
        </mxCell>
        <mxCell id="zymt9DxS3ZADFHl2k7Yk-67" value="&lt;font style=&quot;vertical-align: inherit;&quot;&gt;&lt;font style=&quot;vertical-align: inherit;&quot;&gt;Aplicativo oasis &lt;br&gt;modulo bint y efac&lt;/font&gt;&lt;/font&gt;" style="image;aspect=fixed;html=1;points=[];align=center;fontSize=12;image=img/lib/azure2/intune/Software_Updates.svg;labelPosition=center;verticalLabelPosition=top;verticalAlign=bottom;" parent="zymt9DxS3ZADFHl2k7Yk-2" vertex="1">
          <mxGeometry x="1257.34" y="200" width="45.33" height="40" as="geometry" />
        </mxCell>
        <mxCell id="zymt9DxS3ZADFHl2k7Yk-68" style="edgeStyle=orthogonalEdgeStyle;rounded=0;orthogonalLoop=1;jettySize=auto;html=1;dashed=1;" parent="zymt9DxS3ZADFHl2k7Yk-2" source="zymt9DxS3ZADFHl2k7Yk-69" target="zymt9DxS3ZADFHl2k7Yk-71" edge="1">
          <mxGeometry relative="1" as="geometry" />
        </mxCell>
        <mxCell id="zymt9DxS3ZADFHl2k7Yk-69" value="&lt;font style=&quot;vertical-align: inherit;&quot;&gt;&lt;font style=&quot;vertical-align: inherit;&quot;&gt;Aplicativo oasis &lt;br&gt;modulo efac&lt;/font&gt;&lt;/font&gt;" style="image;aspect=fixed;html=1;points=[];align=center;fontSize=12;image=img/lib/azure2/intune/Software_Updates.svg;labelPosition=center;verticalLabelPosition=top;verticalAlign=bottom;" parent="zymt9DxS3ZADFHl2k7Yk-2" vertex="1">
          <mxGeometry x="1417.34" y="200" width="45.33" height="40" as="geometry" />
        </mxCell>
        <mxCell id="zymt9DxS3ZADFHl2k7Yk-71" value="Factura procesada" style="shape=mxgraph.bpmn.data;labelPosition=center;verticalLabelPosition=top;align=center;verticalAlign=bottom;size=12;html=1;bpmnTransferType=output;fillColor=#d5e8d4;strokeColor=#82b366;" parent="zymt9DxS3ZADFHl2k7Yk-2" vertex="1">
          <mxGeometry x="1509.9999999999998" y="200" width="30" height="40" as="geometry" />
        </mxCell>
        <mxCell id="zymt9DxS3ZADFHl2k7Yk-73" style="edgeStyle=orthogonalEdgeStyle;rounded=0;orthogonalLoop=1;jettySize=auto;html=1;dashed=1;" parent="zymt9DxS3ZADFHl2k7Yk-2" source="zymt9DxS3ZADFHl2k7Yk-74" target="zymt9DxS3ZADFHl2k7Yk-75" edge="1">
          <mxGeometry relative="1" as="geometry" />
        </mxCell>
        <mxCell id="zymt9DxS3ZADFHl2k7Yk-74" value="&lt;font style=&quot;vertical-align: inherit;&quot;&gt;&lt;font style=&quot;vertical-align: inherit;&quot;&gt;Aplicativo oasis &lt;br&gt;modulo ergl&lt;/font&gt;&lt;/font&gt;" style="image;aspect=fixed;html=1;points=[];align=center;fontSize=12;image=img/lib/azure2/intune/Software_Updates.svg;labelPosition=center;verticalLabelPosition=bottom;verticalAlign=top;" parent="zymt9DxS3ZADFHl2k7Yk-2" vertex="1">
          <mxGeometry x="1727.3300000000002" y="405" width="45.33" height="40" as="geometry" />
        </mxCell>
        <mxCell id="zymt9DxS3ZADFHl2k7Yk-75" value="Nota debito en salud" style="shape=mxgraph.bpmn.data;labelPosition=center;verticalLabelPosition=top;align=center;verticalAlign=bottom;size=16;html=1;bpmnTransferType=output;fillColor=#d5e8d4;strokeColor=#82b366;" parent="zymt9DxS3ZADFHl2k7Yk-2" vertex="1">
          <mxGeometry x="1825" y="405" width="30" height="40" as="geometry" />
        </mxCell>
        <mxCell id="zymt9DxS3ZADFHl2k7Yk-77" style="edgeStyle=orthogonalEdgeStyle;rounded=0;orthogonalLoop=1;jettySize=auto;html=1;dashed=1;" parent="zymt9DxS3ZADFHl2k7Yk-2" source="zymt9DxS3ZADFHl2k7Yk-78" target="zymt9DxS3ZADFHl2k7Yk-79" edge="1">
          <mxGeometry relative="1" as="geometry" />
        </mxCell>
        <mxCell id="zymt9DxS3ZADFHl2k7Yk-78" value="&lt;font style=&quot;vertical-align: inherit;&quot;&gt;&lt;font style=&quot;vertical-align: inherit;&quot;&gt;Aplicativo oasis &lt;br&gt;modulo efac&lt;/font&gt;&lt;/font&gt;" style="image;aspect=fixed;html=1;points=[];align=center;fontSize=12;image=img/lib/azure2/intune/Software_Updates.svg;labelPosition=center;verticalLabelPosition=top;verticalAlign=bottom;" parent="zymt9DxS3ZADFHl2k7Yk-2" vertex="1">
          <mxGeometry x="2207.34" y="205" width="45.33" height="40" as="geometry" />
        </mxCell>
        <mxCell id="zymt9DxS3ZADFHl2k7Yk-79" value="Glosa legalizada" style="shape=mxgraph.bpmn.data;labelPosition=center;verticalLabelPosition=top;align=center;verticalAlign=bottom;size=18;html=1;bpmnTransferType=output;fillColor=#d5e8d4;strokeColor=#82b366;" parent="zymt9DxS3ZADFHl2k7Yk-2" vertex="1">
          <mxGeometry x="2320" y="205" width="30" height="40" as="geometry" />
        </mxCell>
        <mxCell id="1CygiPX22rwdBVWNIMUi-1" value="&lt;font style=&quot;vertical-align: inherit;&quot;&gt;&lt;font style=&quot;vertical-align: inherit;&quot;&gt;Generar cuenta medica&lt;/font&gt;&lt;/font&gt;" style="points=[[0.25,0,0],[0.5,0,0],[0.75,0,0],[1,0.25,0],[1,0.5,0],[1,0.75,0],[0.75,1,0],[0.5,1,0],[0.25,1,0],[0,0.75,0],[0,0.5,0],[0,0.25,0]];shape=mxgraph.bpmn.task;whiteSpace=wrap;rectStyle=rounded;size=10;html=1;container=1;expand=0;collapsible=0;taskMarker=service;fillColor=#fff2cc;strokeColor=#d6b656;" vertex="1" parent="zymt9DxS3ZADFHl2k7Yk-2">
          <mxGeometry x="550" y="280" width="120" height="80" as="geometry" />
        </mxCell>
        <mxCell id="1CygiPX22rwdBVWNIMUi-12" value="&lt;font style=&quot;vertical-align: inherit;&quot;&gt;&lt;font style=&quot;vertical-align: inherit;&quot;&gt;Respuesta 15 días&lt;/font&gt;&lt;/font&gt;" style="points=[[0.145,0.145,0],[0.5,0,0],[0.855,0.145,0],[1,0.5,0],[0.855,0.855,0],[0.5,1,0],[0.145,0.855,0],[0,0.5,0]];shape=mxgraph.bpmn.event;html=1;verticalLabelPosition=top;labelBackgroundColor=#ffffff;verticalAlign=bottom;align=center;perimeter=ellipsePerimeter;outlineConnect=0;aspect=fixed;outline=boundInt;symbol=timer;fillColor=#f8cecc;strokeColor=#b85450;labelPosition=center;" vertex="1" parent="zymt9DxS3ZADFHl2k7Yk-2">
          <mxGeometry x="2010" y="295" width="50" height="50" as="geometry" />
        </mxCell>
        <mxCell id="1CygiPX22rwdBVWNIMUi-9" style="edgeStyle=orthogonalEdgeStyle;rounded=0;orthogonalLoop=1;jettySize=auto;html=1;" edge="1" parent="zymt9DxS3ZADFHl2k7Yk-2" source="zymt9DxS3ZADFHl2k7Yk-32" target="1CygiPX22rwdBVWNIMUi-12">
          <mxGeometry relative="1" as="geometry">
            <mxPoint x="2335" y="515" as="targetPoint" />
          </mxGeometry>
        </mxCell>
        <mxCell id="1CygiPX22rwdBVWNIMUi-15" style="edgeStyle=orthogonalEdgeStyle;rounded=0;orthogonalLoop=1;jettySize=auto;html=1;entryX=0.5;entryY=0;entryDx=0;entryDy=0;entryPerimeter=0;exitX=1;exitY=0.5;exitDx=0;exitDy=0;exitPerimeter=0;" edge="1" parent="zymt9DxS3ZADFHl2k7Yk-2" source="zymt9DxS3ZADFHl2k7Yk-14" target="zymt9DxS3ZADFHl2k7Yk-4">
          <mxGeometry relative="1" as="geometry">
            <Array as="points">
              <mxPoint x="710" y="100" />
              <mxPoint x="710" y="20" />
              <mxPoint x="190" y="20" />
            </Array>
          </mxGeometry>
        </mxCell>
        <mxCell id="1CygiPX22rwdBVWNIMUi-17" value="Genera &lt;br&gt;glosa" style="edgeStyle=orthogonalEdgeStyle;rounded=0;orthogonalLoop=1;jettySize=auto;html=1;" edge="1" parent="zymt9DxS3ZADFHl2k7Yk-2" source="1CygiPX22rwdBVWNIMUi-16" target="zymt9DxS3ZADFHl2k7Yk-31">
          <mxGeometry relative="1" as="geometry" />
        </mxCell>
        <mxCell id="1CygiPX22rwdBVWNIMUi-16" value="" style="points=[[0.25,0.25,0],[0.5,0,0],[0.75,0.25,0],[1,0.5,0],[0.75,0.75,0],[0.5,1,0],[0.25,0.75,0],[0,0.5,0]];shape=mxgraph.bpmn.gateway2;html=1;verticalLabelPosition=bottom;labelBackgroundColor=#ffffff;verticalAlign=top;align=center;perimeter=rhombusPerimeter;outlineConnect=0;outline=none;symbol=none;gwType=exclusive;fillColor=#d5e8d4;strokeColor=#82b366;" vertex="1" parent="zymt9DxS3ZADFHl2k7Yk-2">
          <mxGeometry x="1540" y="295" width="50" height="50" as="geometry" />
        </mxCell>
        <mxCell id="1CygiPX22rwdBVWNIMUi-21" value="Informe&lt;br&gt;errores" style="shape=mxgraph.bpmn.data;labelPosition=center;verticalLabelPosition=bottom;align=center;verticalAlign=top;size=11;html=1;bpmnTransferType=output;fillColor=#d5e8d4;strokeColor=#82b366;" vertex="1" parent="zymt9DxS3ZADFHl2k7Yk-2">
          <mxGeometry x="690" y="180" width="30" height="40" as="geometry" />
        </mxCell>
        <mxCell id="1CygiPX22rwdBVWNIMUi-27" style="edgeStyle=orthogonalEdgeStyle;rounded=0;orthogonalLoop=1;jettySize=auto;html=1;entryX=0.5;entryY=1;entryDx=0;entryDy=0;entryPerimeter=0;dashed=1;" edge="1" parent="zymt9DxS3ZADFHl2k7Yk-2" source="zymt9DxS3ZADFHl2k7Yk-29" target="zymt9DxS3ZADFHl2k7Yk-69">
          <mxGeometry relative="1" as="geometry" />
        </mxCell>
        <mxCell id="zymt9DxS3ZADFHl2k7Yk-83" style="edgeStyle=orthogonalEdgeStyle;rounded=0;orthogonalLoop=1;jettySize=auto;html=1;entryX=0;entryY=0.5;entryDx=0;entryDy=0;entryPerimeter=0;" parent="zymt9DxS3ZADFHl2k7Yk-1" source="zymt9DxS3ZADFHl2k7Yk-89" target="zymt9DxS3ZADFHl2k7Yk-46" edge="1">
          <mxGeometry relative="1" as="geometry">
            <mxPoint x="2625" y="560" as="targetPoint" />
          </mxGeometry>
        </mxCell>
        <mxCell id="zymt9DxS3ZADFHl2k7Yk-84" value="" style="edgeStyle=orthogonalEdgeStyle;rounded=0;orthogonalLoop=1;jettySize=auto;html=1;exitX=1;exitY=0.5;exitDx=0;exitDy=0;exitPerimeter=0;" parent="zymt9DxS3ZADFHl2k7Yk-1" source="zymt9DxS3ZADFHl2k7Yk-46" target="zymt9DxS3ZADFHl2k7Yk-99" edge="1">
          <mxGeometry relative="1" as="geometry">
            <mxPoint x="3220" y="1260" as="sourcePoint" />
          </mxGeometry>
        </mxCell>
        <mxCell id="zymt9DxS3ZADFHl2k7Yk-85" value="Auditor o gestor de calidad" style="swimlane;startSize=20;horizontal=0;html=1;" parent="zymt9DxS3ZADFHl2k7Yk-1" vertex="1">
          <mxGeometry y="520" width="2880" height="220" as="geometry" />
        </mxCell>
        <mxCell id="zymt9DxS3ZADFHl2k7Yk-88" value="Realizar auditoria de facturas" style="points=[[0.25,0,0],[0.5,0,0],[0.75,0,0],[1,0.25,0],[1,0.5,0],[1,0.75,0],[0.75,1,0],[0.5,1,0],[0.25,1,0],[0,0.75,0],[0,0.5,0],[0,0.25,0]];shape=mxgraph.bpmn.task;whiteSpace=wrap;rectStyle=rounded;size=10;html=1;container=1;expand=0;collapsible=0;taskMarker=abstract;fillColor=#fff2cc;strokeColor=#d6b656;" parent="zymt9DxS3ZADFHl2k7Yk-85" vertex="1">
          <mxGeometry x="945" y="30" width="120" height="80" as="geometry" />
        </mxCell>
        <mxCell id="zymt9DxS3ZADFHl2k7Yk-89" value="Revisar y evaluar la respuesta de la glosa" style="points=[[0.25,0,0],[0.5,0,0],[0.75,0,0],[1,0.25,0],[1,0.5,0],[1,0.75,0],[0.75,1,0],[0.5,1,0],[0.25,1,0],[0,0.75,0],[0,0.5,0],[0,0.25,0]];shape=mxgraph.bpmn.task;whiteSpace=wrap;rectStyle=rounded;size=10;html=1;container=1;expand=0;collapsible=0;taskMarker=abstract;fillColor=#fff2cc;strokeColor=#d6b656;" parent="zymt9DxS3ZADFHl2k7Yk-85" vertex="1">
          <mxGeometry x="1975" y="30" width="120" height="80" as="geometry" />
        </mxCell>
        <mxCell id="1CygiPX22rwdBVWNIMUi-23" style="edgeStyle=orthogonalEdgeStyle;rounded=0;orthogonalLoop=1;jettySize=auto;html=1;dashed=1;entryX=0.5;entryY=1;entryDx=0;entryDy=0;entryPerimeter=0;" edge="1" parent="zymt9DxS3ZADFHl2k7Yk-85" source="1CygiPX22rwdBVWNIMUi-22" target="zymt9DxS3ZADFHl2k7Yk-88">
          <mxGeometry relative="1" as="geometry">
            <Array as="points">
              <mxPoint x="1005" y="160" />
            </Array>
          </mxGeometry>
        </mxCell>
        <mxCell id="1CygiPX22rwdBVWNIMUi-22" value="FOR-AUD-04" style="shape=mxgraph.bpmn.data;labelPosition=center;verticalLabelPosition=bottom;align=center;verticalAlign=top;size=15;html=1;bpmnTransferType=input;fillColor=#d5e8d4;strokeColor=#82b366;" vertex="1" parent="zymt9DxS3ZADFHl2k7Yk-85">
          <mxGeometry x="930" y="140" width="30" height="40" as="geometry" />
        </mxCell>
        <mxCell id="zymt9DxS3ZADFHl2k7Yk-94" value="Asistente de pagaduría" style="swimlane;startSize=20;horizontal=0;html=1;" parent="zymt9DxS3ZADFHl2k7Yk-1" vertex="1">
          <mxGeometry y="740" width="2880" height="260" as="geometry" />
        </mxCell>
        <mxCell id="zymt9DxS3ZADFHl2k7Yk-95" style="edgeStyle=orthogonalEdgeStyle;rounded=0;orthogonalLoop=1;jettySize=auto;html=1;" parent="zymt9DxS3ZADFHl2k7Yk-94" source="zymt9DxS3ZADFHl2k7Yk-97" target="zymt9DxS3ZADFHl2k7Yk-100" edge="1">
          <mxGeometry relative="1" as="geometry">
            <mxPoint x="3810" y="170" as="targetPoint" />
          </mxGeometry>
        </mxCell>
        <mxCell id="zymt9DxS3ZADFHl2k7Yk-96" style="edgeStyle=orthogonalEdgeStyle;rounded=0;orthogonalLoop=1;jettySize=auto;html=1;dashed=1;" parent="zymt9DxS3ZADFHl2k7Yk-94" source="zymt9DxS3ZADFHl2k7Yk-97" target="zymt9DxS3ZADFHl2k7Yk-102" edge="1">
          <mxGeometry relative="1" as="geometry" />
        </mxCell>
        <mxCell id="zymt9DxS3ZADFHl2k7Yk-97" value="Notificar pago a prestadores" style="points=[[0.25,0,0],[0.5,0,0],[0.75,0,0],[1,0.25,0],[1,0.5,0],[1,0.75,0],[0.75,1,0],[0.5,1,0],[0.25,1,0],[0,0.75,0],[0,0.5,0],[0,0.25,0]];shape=mxgraph.bpmn.task;whiteSpace=wrap;rectStyle=rounded;size=10;html=1;container=1;expand=0;collapsible=0;taskMarker=send;fillColor=#fff2cc;strokeColor=#d6b656;" parent="zymt9DxS3ZADFHl2k7Yk-94" vertex="1">
          <mxGeometry x="2599.99" y="55" width="120" height="80" as="geometry" />
        </mxCell>
        <mxCell id="zymt9DxS3ZADFHl2k7Yk-99" value="Generar cuentas por pagar SOFSIN" style="points=[[0.25,0,0],[0.5,0,0],[0.75,0,0],[1,0.25,0],[1,0.5,0],[1,0.75,0],[0.75,1,0],[0.5,1,0],[0.25,1,0],[0,0.75,0],[0,0.5,0],[0,0.25,0]];shape=mxgraph.bpmn.task;whiteSpace=wrap;rectStyle=rounded;size=10;html=1;container=1;expand=0;collapsible=0;taskMarker=abstract;fillColor=#fff2cc;strokeColor=#d6b656;" parent="zymt9DxS3ZADFHl2k7Yk-94" vertex="1">
          <mxGeometry x="2280" y="55" width="120" height="80" as="geometry" />
        </mxCell>
        <mxCell id="zymt9DxS3ZADFHl2k7Yk-100" value="Fin" style="points=[[0.145,0.145,0],[0.5,0,0],[0.855,0.145,0],[1,0.5,0],[0.855,0.855,0],[0.5,1,0],[0.145,0.855,0],[0,0.5,0]];shape=mxgraph.bpmn.event;html=1;verticalLabelPosition=bottom;labelBackgroundColor=#ffffff;verticalAlign=top;align=center;perimeter=ellipsePerimeter;outlineConnect=0;aspect=fixed;outline=end;symbol=terminate;fillColor=#f8cecc;strokeColor=#b85450;" parent="zymt9DxS3ZADFHl2k7Yk-94" vertex="1">
          <mxGeometry x="2760" y="70" width="50" height="50" as="geometry" />
        </mxCell>
        <mxCell id="zymt9DxS3ZADFHl2k7Yk-101" style="edgeStyle=orthogonalEdgeStyle;rounded=0;orthogonalLoop=1;jettySize=auto;html=1;dashed=1;" parent="zymt9DxS3ZADFHl2k7Yk-94" source="zymt9DxS3ZADFHl2k7Yk-102" target="zymt9DxS3ZADFHl2k7Yk-103" edge="1">
          <mxGeometry relative="1" as="geometry" />
        </mxCell>
        <mxCell id="zymt9DxS3ZADFHl2k7Yk-102" value="&lt;font style=&quot;vertical-align: inherit;&quot;&gt;&lt;font style=&quot;vertical-align: inherit;&quot;&gt;Aplicativo ZonaSer &lt;br&gt;Salud&lt;/font&gt;&lt;/font&gt;" style="image;aspect=fixed;html=1;points=[];align=center;fontSize=12;image=img/lib/azure2/intune/Software_Updates.svg;labelPosition=center;verticalLabelPosition=bottom;verticalAlign=top;" parent="zymt9DxS3ZADFHl2k7Yk-94" vertex="1">
          <mxGeometry x="2637.3199999999997" y="170" width="45.33" height="40" as="geometry" />
        </mxCell>
        <mxCell id="zymt9DxS3ZADFHl2k7Yk-103" value="Reporte de facturas" style="shape=mxgraph.bpmn.data;labelPosition=center;verticalLabelPosition=bottom;align=center;verticalAlign=top;size=11;html=1;bpmnTransferType=output;fillColor=#d5e8d4;strokeColor=#82b366;" parent="zymt9DxS3ZADFHl2k7Yk-94" vertex="1">
          <mxGeometry x="2770" y="170" width="30" height="40" as="geometry" />
        </mxCell>
        <mxCell id="zymt9DxS3ZADFHl2k7Yk-98" style="edgeStyle=orthogonalEdgeStyle;rounded=0;orthogonalLoop=1;jettySize=auto;html=1;" parent="zymt9DxS3ZADFHl2k7Yk-94" source="zymt9DxS3ZADFHl2k7Yk-99" target="1CygiPX22rwdBVWNIMUi-13" edge="1">
          <mxGeometry relative="1" as="geometry">
            <mxPoint x="2860" y="170" as="targetPoint" />
          </mxGeometry>
        </mxCell>
        <mxCell id="1CygiPX22rwdBVWNIMUi-13" value="Realizar pago de la cuenta medica" style="points=[[0.25,0,0],[0.5,0,0],[0.75,0,0],[1,0.25,0],[1,0.5,0],[1,0.75,0],[0.75,1,0],[0.5,1,0],[0.25,1,0],[0,0.75,0],[0,0.5,0],[0,0.25,0]];shape=mxgraph.bpmn.task;whiteSpace=wrap;rectStyle=rounded;size=10;html=1;container=1;expand=0;collapsible=0;taskMarker=abstract;fillColor=#fff2cc;strokeColor=#d6b656;" vertex="1" parent="zymt9DxS3ZADFHl2k7Yk-94">
          <mxGeometry x="2440" y="55" width="120" height="80" as="geometry" />
        </mxCell>
        <mxCell id="1CygiPX22rwdBVWNIMUi-14" style="edgeStyle=orthogonalEdgeStyle;rounded=0;orthogonalLoop=1;jettySize=auto;html=1;entryX=0;entryY=0.5;entryDx=0;entryDy=0;entryPerimeter=0;" edge="1" parent="zymt9DxS3ZADFHl2k7Yk-94" source="1CygiPX22rwdBVWNIMUi-13" target="zymt9DxS3ZADFHl2k7Yk-97">
          <mxGeometry relative="1" as="geometry" />
        </mxCell>
        <mxCell id="1CygiPX22rwdBVWNIMUi-5" style="edgeStyle=orthogonalEdgeStyle;rounded=0;orthogonalLoop=1;jettySize=auto;html=1;entryX=0;entryY=0.5;entryDx=0;entryDy=0;entryPerimeter=0;" edge="1" parent="zymt9DxS3ZADFHl2k7Yk-1" source="zymt9DxS3ZADFHl2k7Yk-54" target="zymt9DxS3ZADFHl2k7Yk-88">
          <mxGeometry relative="1" as="geometry">
            <mxPoint x="1140" y="770" as="targetPoint" />
            <Array as="points">
              <mxPoint x="910" y="340" />
              <mxPoint x="910" y="590" />
            </Array>
          </mxGeometry>
        </mxCell>
        <mxCell id="1CygiPX22rwdBVWNIMUi-8" style="edgeStyle=orthogonalEdgeStyle;rounded=0;orthogonalLoop=1;jettySize=auto;html=1;entryX=0;entryY=0.5;entryDx=0;entryDy=0;entryPerimeter=0;" edge="1" parent="zymt9DxS3ZADFHl2k7Yk-1" source="zymt9DxS3ZADFHl2k7Yk-88" target="zymt9DxS3ZADFHl2k7Yk-34">
          <mxGeometry relative="1" as="geometry" />
        </mxCell>
        <mxCell id="1CygiPX22rwdBVWNIMUi-11" style="edgeStyle=orthogonalEdgeStyle;rounded=0;orthogonalLoop=1;jettySize=auto;html=1;exitX=0.5;exitY=1;exitDx=0;exitDy=0;exitPerimeter=0;" edge="1" parent="zymt9DxS3ZADFHl2k7Yk-1" source="1CygiPX22rwdBVWNIMUi-12" target="zymt9DxS3ZADFHl2k7Yk-89">
          <mxGeometry relative="1" as="geometry">
            <mxPoint x="2360" y="560" as="sourcePoint" />
          </mxGeometry>
        </mxCell>
        <mxCell id="1CygiPX22rwdBVWNIMUi-18" value="No genera glosa" style="edgeStyle=orthogonalEdgeStyle;rounded=0;orthogonalLoop=1;jettySize=auto;html=1;entryX=0;entryY=0.5;entryDx=0;entryDy=0;entryPerimeter=0;" edge="1" parent="zymt9DxS3ZADFHl2k7Yk-1" source="1CygiPX22rwdBVWNIMUi-16" target="zymt9DxS3ZADFHl2k7Yk-99">
          <mxGeometry relative="1" as="geometry">
            <Array as="points">
              <mxPoint x="1565" y="835" />
            </Array>
          </mxGeometry>
        </mxCell>
      </root>
    </mxGraphModel>
  </diagram>
</mxfile>
